<svg xmlns="http://www.w3.org/2000/svg" viewBox="0 0 1920 1080" preserveAspectRatio="xMidYMid slice"><defs><radialGradient id="space"><stop stop-color="#0a2018"/><stop offset=".45" stop-color="#030806"/><stop offset="1" stop-color="#000201"/></radialGradient><radialGradient id="worm"><stop stop-color="#001f13"/><stop offset=".45" stop-color="#0c6a3e" stop-opacity=".7"/><stop offset=".7" stop-color="#43ff80" stop-opacity=".28"/><stop offset="1" stop-color="#000" stop-opacity="0"/></radialGradient><linearGradient id="hull" x1="0" y1="0" x2="1" y2="1"><stop stop-color="#36423c"/><stop offset=".2" stop-color="#151d19"/><stop offset=".7" stop-color="#060a08"/><stop offset="1" stop-color="#010302"/></linearGradient><linearGradient id="panel"><stop stop-color="#252e2a"/><stop offset=".45" stop-color="#0d1210"/><stop offset="1" stop-color="#020403"/></linearGradient><linearGradient id="engine"><stop stop-color="#d7ffe7"/><stop offset=".12" stop-color="#48ff20"/><stop offset="1" stop-color="#00ff8c" stop-opacity="0"/></linearGradient><linearGradient id="earth"><stop stop-color="#1a5a6f"/><stop offset=".3" stop-color="#061117"/><stop offset="1" stop-color="#000"/></linearGradient><filter id="g"><feGaussianBlur stdDeviation="14"/></filter><filter id="sg"><feGaussianBlur stdDeviation="4"/></filter></defs><rect width="1920" height="1080" fill="url(#space)"/><g fill="#d9ffe8"><circle cx="1212" cy="684" r="1" opacity="0.86"/><circle cx="1814" cy="546" r="2" opacity="0.51"/><circle cx="1716" cy="839" r="1" opacity="0.81"/><circle cx="1510" cy="765" r="1" opacity="0.85"/><circle cx="144" cy="509" r="1" opacity="0.85"/><circle cx="1456" cy="994" r="1" opacity="0.76"/><circle cx="1825" cy="738" r="1" opacity="0.87"/><circle cx="572" cy="1069" r="1" opacity="0.56"/><circle cx="537" cy="482" r="1" opacity="0.88"/><circle cx="977" cy="989" r="1" opacity="0.67"/><circle cx="1408" cy="156" r="2" opacity="0.55"/><circle cx="775" cy="840" r="2" opacity="0.56"/><circle cx="507" cy="897" r="2" opacity="0.67"/><circle cx="1786" cy="754" r="2" opacity="0.76"/><circle cx="439" cy="652" r="2" opacity="0.52"/><circle cx="1866" cy="564" r="1" opacity="0.75"/><circle cx="24" cy="320" r="2" opacity="0.34"/><circle cx="1877" cy="75" r="1" opacity="0.76"/><circle cx="1548" cy="1062" r="1" opacity="0.39"/><circle cx="220" cy="54" r="1" opacity="0.49"/><circle cx="576" cy="396" r="1" opacity="0.41"/><circle cx="183" cy="71" r="2" opacity="0.63"/><circle cx="1071" cy="599" r="1" opacity="0.63"/><circle cx="1341" cy="859" r="2" opacity="0.84"/><circle cx="653" cy="40" r="1" opacity="0.71"/><circle cx="603" cy="903" r="1" opacity="0.48"/><circle cx="1847" cy="525" r="2" opacity="0.67"/><circle cx="1013" cy="815" r="2" opacity="0.71"/><circle cx="1222" cy="752" r="2" opacity="0.66"/><circle cx="1098" cy="407" r="1" opacity="0.53"/><circle cx="908" cy="736" r="1" opacity="0.86"/><circle cx="1327" cy="14" r="1" opacity="0.56"/><circle cx="897" cy="947" r="1" opacity="0.79"/><circle cx="934" cy="642" r="1" opacity="0.52"/><circle cx="1537" cy="335" r="1" opacity="0.74"/><circle cx="591" cy="841" r="1" opacity="0.70"/><circle cx="314" cy="19" r="2" opacity="0.31"/><circle cx="1038" cy="243" r="2" opacity="0.41"/><circle cx="1047" cy="63" r="2" opacity="0.82"/><circle cx="1146" cy="991" r="1" opacity="0.57"/><circle cx="977" cy="100" r="1" opacity="0.66"/><circle cx="1791" cy="285" r="1" opacity="0.55"/><circle cx="117" cy="465" r="2" opacity="0.41"/><circle cx="451" cy="813" r="2" opacity="0.31"/><circle cx="1179" cy="1068" r="1" opacity="0.71"/><circle cx="119" cy="161" r="1" opacity="0.57"/><circle cx="100" cy="279" r="1" opacity="0.88"/><circle cx="308" cy="620" r="1" opacity="0.86"/><circle cx="69" cy="375" r="2" opacity="0.43"/><circle cx="324" cy="61" r="1" opacity="0.70"/><circle cx="61" cy="473" r="1" opacity="0.66"/><circle cx="1838" cy="649" r="1" opacity="0.74"/><circle cx="478" cy="498" r="1" opacity="0.64"/><circle cx="1784" cy="602" r="1" opacity="0.83"/><circle cx="159" cy="337" r="1" opacity="0.82"/></g><g transform="translate(1410 155)"><circle r="210" fill="url(#worm)" filter="url(#g)"/><g fill="none" stroke="#48ff20" opacity=".42"><ellipse rx="174" ry="84" stroke-width="8" transform="rotate(-14)"/><ellipse rx="138" ry="65" stroke-width="6" transform="rotate(18)"/><ellipse rx="102" ry="46" stroke-width="4" transform="rotate(-32)"/></g><circle r="45" fill="#000"/></g><circle cx="1775" cy="1040" r="430" fill="url(#earth)" stroke="#89dfff" stroke-opacity=".45" stroke-width="5"/><path d="M1450 930q250-120 520 10" fill="none" stroke="#ffb65a" stroke-opacity=".35" stroke-width="9" stroke-dasharray="2 22"/><g transform="translate(1280 210) scale(0.3)"><path d="M0 35 140 0l120 28-105 30-110 12z" fill="#121a16" stroke="#5c7168" stroke-width="4"/><path d="M20 50-70 68 10 20z" fill="url(#engine)"/></g><g transform="translate(1440 285) scale(0.22)"><path d="M0 35 140 0l120 28-105 30-110 12z" fill="#121a16" stroke="#5c7168" stroke-width="4"/><path d="M20 50-70 68 10 20z" fill="url(#engine)"/></g><g transform="translate(1580 195) scale(0.17)"><path d="M0 35 140 0l120 28-105 30-110 12z" fill="#121a16" stroke="#5c7168" stroke-width="4"/><path d="M20 50-70 68 10 20z" fill="url(#engine)"/></g><g transform="translate(1690 330) scale(0.15)"><path d="M0 35 140 0l120 28-105 30-110 12z" fill="#121a16" stroke="#5c7168" stroke-width="4"/><path d="M20 50-70 68 10 20z" fill="url(#engine)"/></g><g transform="translate(120 210)"><path d="M210 540 550 250 1310 210 1650 455 1330 680 520 750Z" fill="url(#hull)" stroke="#5f7169" stroke-width="7"/><path d="M550 250 770 75 1210 145 1310 210Z" fill="#17201c" stroke="#55675f" stroke-width="6"/><path d="M490 345 660 235 760 285 585 470 340 575Z" fill="#090d0b" stroke="#2f3e38" stroke-width="5"/><path d="M1250 220 1450 300 1650 455 1370 475Z" fill="#111813" stroke="#41534b" stroke-width="5"/><path d="M520 750 720 855 1230 790 1330 680Z" fill="#050806" stroke="#28362f" stroke-width="5"/><g fill="url(#panel)" stroke="#34443c" stroke-width="2"><path d="M590 350h48l9 8-7 30h-48z"/><path d="M662 355h48l9 8-7 30h-48z"/><path d="M734 356h48l9 8-7 30h-48z"/><path d="M806 354h48l9 8-7 30h-48z"/><path d="M878 350h48l9 8-7 30h-48z"/><path d="M950 345h48l9 8-7 30h-48z"/><path d="M1022 344h48l9 8-7 30h-48z"/><path d="M1094 346h48l9 8-7 30h-48z"/><path d="M1166 350h48l9 8-7 30h-48z"/><path d="M1238 355h48l9 8-7 30h-48z"/><path d="M602 408h48l9 8-7 30h-48z"/><path d="M674 413h48l9 8-7 30h-48z"/><path d="M746 414h48l9 8-7 30h-48z"/><path d="M818 412h48l9 8-7 30h-48z"/><path d="M890 408h48l9 8-7 30h-48z"/><path d="M962 403h48l9 8-7 30h-48z"/><path d="M1034 402h48l9 8-7 30h-48z"/><path d="M1106 404h48l9 8-7 30h-48z"/><path d="M1178 408h48l9 8-7 30h-48z"/><path d="M1250 413h48l9 8-7 30h-48z"/><path d="M614 466h48l9 8-7 30h-48z"/><path d="M686 471h48l9 8-7 30h-48z"/><path d="M758 472h48l9 8-7 30h-48z"/><path d="M830 470h48l9 8-7 30h-48z"/><path d="M902 466h48l9 8-7 30h-48z"/><path d="M974 461h48l9 8-7 30h-48z"/><path d="M1046 460h48l9 8-7 30h-48z"/><path d="M1118 462h48l9 8-7 30h-48z"/><path d="M1190 466h48l9 8-7 30h-48z"/><path d="M1262 471h48l9 8-7 30h-48z"/><path d="M626 524h48l9 8-7 30h-48z"/><path d="M698 529h48l9 8-7 30h-48z"/><path d="M770 530h48l9 8-7 30h-48z"/><path d="M842 528h48l9 8-7 30h-48z"/><path d="M914 524h48l9 8-7 30h-48z"/><path d="M986 519h48l9 8-7 30h-48z"/><path d="M1058 518h48l9 8-7 30h-48z"/><path d="M1130 520h48l9 8-7 30h-48z"/><path d="M1202 524h48l9 8-7 30h-48z"/><path d="M1274 529h48l9 8-7 30h-48z"/></g><g fill="#48ff20" filter="url(#sg)"><rect x="650" y="550" width="15" height="5" rx="2"/><rect x="685" y="559" width="15" height="5" rx="2"/><rect x="720" y="564" width="15" height="5" rx="2"/><rect x="755" y="562" width="15" height="5" rx="2"/><rect x="790" y="555" width="15" height="5" rx="2"/><rect x="825" y="545" width="15" height="5" rx="2"/><rect x="860" y="537" width="15" height="5" rx="2"/><rect x="895" y="536" width="15" height="5" rx="2"/><rect x="930" y="541" width="15" height="5" rx="2"/><rect x="965" y="550" width="15" height="5" rx="2"/><rect x="1000" y="559" width="15" height="5" rx="2"/><rect x="1035" y="564" width="15" height="5" rx="2"/><rect x="1070" y="562" width="15" height="5" rx="2"/><rect x="1105" y="554" width="15" height="5" rx="2"/><rect x="1140" y="545" width="15" height="5" rx="2"/><rect x="1175" y="537" width="15" height="5" rx="2"/><rect x="1210" y="536" width="15" height="5" rx="2"/><rect x="1245" y="541" width="15" height="5" rx="2"/><rect x="1280" y="550" width="15" height="5" rx="2"/><rect x="1315" y="560" width="15" height="5" rx="2"/><rect x="1350" y="564" width="15" height="5" rx="2"/><rect x="1385" y="562" width="15" height="5" rx="2"/><rect x="1420" y="554" width="15" height="5" rx="2"/><rect x="1455" y="545" width="15" height="5" rx="2"/><rect x="1490" y="537" width="15" height="5" rx="2"/></g><path d="M375 570h235l-66 78H315Z" fill="#06150b" stroke="#48ff20" stroke-width="5"/><g transform="translate(410 598) scale(.38)" fill="none" stroke="#48ff20" stroke-linecap="round" stroke-linejoin="round"><path stroke-width="14" d="M26 94H14c9-10 13-20 13-32C27 30 42 11 60 11s33 19 33 51c0 12 4 22 13 32H94"/><path stroke-width="10" d="M38 94c7-12 10-25 10-39 0-16 5-27 12-27s12 11 12 27c0 14 3 27 10 39"/></g><path d="M900 505h420l120 74-520 48-85-52Z" fill="#06150b" stroke="#48ff20" stroke-width="5"/><text x="955" y="579" font-family="Arial, sans-serif" font-weight="700" font-size="44" fill="#48ff20" letter-spacing="2">DE-OMEGA-POINT</text><path d="M210 540-30 600 198 625Z" fill="url(#engine)" filter="url(#g)"/><path d="M1650 455 1920 490 1640 540Z" fill="url(#engine)" filter="url(#g)"/></g></svg>